# xmcd
# 
# Track frame offsets:
#     150
#     23305
#     41450
#     62967
#     78702
#     99817
#     117017
#     134422
#     152767
#     174380
# 
# Disc length: 2613
# 
# Revision: 1
# Processed by: cddbd v1.5.2PL0 Copyright (c) Steve Scherf et al.
# Submitted via: BonkEnc v1.0.15
# 
DISCID=710a330a
DTITLE=ASKA - ONE
DYEAR=1997
DGENRE=JPop
TTITLE0=風の引力
TTITLE1=ONE
TTITLE2=草原にソファを置いて
TTITLE3=バーガーショップで逢いましょう
TTITLE4=僕はすっかり
TTITLE5=共謀者
TTITLE6=帰宅
TTITLE7=ブラックマーケット
TTITLE8=君が家に帰ったときに
TTITLE9=ID
EXTD=YEAR: 1997
EXTT0=
EXTT1=
EXTT2=
EXTT3=
EXTT4=
EXTT5=
EXTT6=
EXTT7=
EXTT8=
EXTT9=
PLAYORDER=
